<svg width="138" height="34" viewBox="0 0 138 34" fill="none" xmlns="http://www.w3.org/2000/svg">
<g clip-path="url(#clip0_1854_18)">
<g filter="url(#filter0_dd_1854_18)">
<rect x="2" y="2" width="32" height="28" rx="5" fill="#060606"/>
<path d="M19.1421 6.48463C18.9408 6.4128 18.7252 6.375 18.5 6.375C18.2748 6.375 18.0592 6.4128 17.8579 6.48463L8.83523 9.5052C7.78106 9.85679 6.99523 10.6771 7.00002 11.6676C7.02398 15.4178 8.97898 22.2793 17.235 25.3982C18.0352 25.7006 18.9648 25.7006 19.765 25.3982C28.021 22.2793 29.976 15.4178 30 11.6676C30.0048 10.6771 29.2189 9.85679 28.1648 9.5052L19.1421 6.48463ZM13.9431 17.1946C14.1731 17.24 14.4175 17.2627 14.6667 17.2627C16.3581 17.2627 17.7333 16.1777 17.7333 14.8432V12.4237H19.8512C20.431 12.4237 20.9629 12.6808 21.2217 13.0928L21.5667 13.6334H24.6333C25.055 13.6334 25.4 13.9056 25.4 14.2383V15.4481C25.4 17.119 23.6846 18.4724 21.5667 18.4724H19.2667V20.3891C19.2667 20.6651 18.984 20.8919 18.6294 20.8919C18.5431 20.8919 18.4569 20.8768 18.3802 20.8503L13.6508 19.2512C13.3346 19.1453 13.1333 18.8996 13.1333 18.6312C13.1333 18.5253 13.1621 18.4233 13.2244 18.3288L13.9431 17.1946ZM13.9 12.4237H16.2V14.8432C16.2 15.5123 15.5148 16.0529 14.6667 16.0529C13.8186 16.0529 13.1333 15.5123 13.1333 14.8432V13.0286C13.1333 12.6959 13.4783 12.4237 13.9 12.4237ZM20.0333 14.2383C20.0333 14.0779 19.9526 13.924 19.8088 13.8106C19.665 13.6972 19.47 13.6334 19.2667 13.6334C19.0633 13.6334 18.8683 13.6972 18.7246 13.8106C18.5808 13.924 18.5 14.0779 18.5 14.2383C18.5 14.3987 18.5808 14.5526 18.7246 14.666C18.8683 14.7795 19.0633 14.8432 19.2667 14.8432C19.47 14.8432 19.665 14.7795 19.8088 14.666C19.9526 14.5526 20.0333 14.3987 20.0333 14.2383Z" fill="#F8F8F8"/>
</g>
<path d="M42.224 23.256C41.1573 23.256 40.1867 23.0053 39.312 22.504C38.448 21.992 37.76 21.2987 37.248 20.424C36.7467 19.5387 36.496 18.5627 36.496 17.496C36.496 16.408 36.7413 15.4267 37.232 14.552C37.7227 13.6773 38.3947 12.9947 39.248 12.504C40.1013 12.0027 41.0613 11.752 42.128 11.752C42.704 11.752 43.2693 11.8213 43.824 11.96C44.3787 12.0987 44.8533 12.296 45.248 12.552L44.816 15.032C44.048 14.744 43.3547 14.6 42.736 14.6C41.8827 14.6 41.2267 14.8507 40.768 15.352C40.3093 15.8427 40.08 16.552 40.08 17.48C40.08 18.3867 40.32 19.096 40.8 19.608C41.2907 20.1093 41.968 20.36 42.832 20.36C43.1627 20.36 43.472 20.328 43.76 20.264C44.048 20.2 44.4 20.0827 44.816 19.912L45.264 22.44C44.336 22.984 43.3227 23.256 42.224 23.256ZM49.8516 23.128C49.1583 23.128 48.5076 22.9467 47.8996 22.584C47.3023 22.2107 46.8223 21.7093 46.4596 21.08C46.097 20.44 45.9156 19.7307 45.9156 18.952C45.9156 18.184 46.097 17.4907 46.4596 16.872C46.8223 16.2427 47.3076 15.752 47.9156 15.4C48.5236 15.048 49.169 14.872 49.8516 14.872C50.4063 14.872 50.9183 15.0267 51.3876 15.336C51.8676 15.6453 52.2303 16.1093 52.4756 16.728V14.872H55.8356V23H52.4756V21.512C51.9423 22.5893 51.0676 23.128 49.8516 23.128ZM50.8916 20.6C51.3183 20.6 51.681 20.4507 51.9796 20.152C52.289 19.8427 52.4543 19.48 52.4756 19.064V18.936C52.4543 18.5093 52.2836 18.1467 51.9636 17.848C51.6543 17.5493 51.297 17.4 50.8916 17.4C50.4436 17.4 50.0596 17.56 49.7396 17.88C49.4303 18.1893 49.2756 18.5627 49.2756 19C49.2756 19.448 49.4356 19.8267 49.7556 20.136C50.0756 20.4453 50.4543 20.6 50.8916 20.6ZM57.4563 15.096H60.6723V16.728C61.2909 15.4907 62.2723 14.872 63.6163 14.872C64.6403 14.872 65.4403 15.24 66.0163 15.976C66.6029 16.7013 66.8963 17.7093 66.8963 19V23H63.5363V18.664C63.5363 18.2053 63.4349 17.8533 63.2323 17.608C63.0403 17.3627 62.7683 17.24 62.4163 17.24C62.1603 17.24 61.9096 17.3253 61.6643 17.496C61.4189 17.656 61.2163 17.8907 61.0563 18.2C60.9069 18.5093 60.8323 18.8613 60.8323 19.256V23H57.4563V15.096ZM71.2566 23.128C70.3606 23.128 69.662 22.84 69.1606 22.264C68.6593 21.688 68.4086 20.904 68.4086 19.912V14.984H71.8006V19.768C71.8006 20.0133 71.8646 20.2053 71.9926 20.344C72.1313 20.472 72.3073 20.536 72.5206 20.536C72.734 20.536 72.9526 20.472 73.1766 20.344L73.3526 22.568C73.118 22.7493 72.8086 22.888 72.4246 22.984C72.0513 23.08 71.662 23.128 71.2566 23.128ZM70.1046 13.784C69.6033 13.784 69.1766 13.6293 68.8246 13.32C68.4833 13 68.3126 12.6107 68.3126 12.152C68.3126 11.6933 68.494 11.3093 68.8566 11C69.2193 10.6907 69.6353 10.536 70.1046 10.536C70.5953 10.536 71.0166 10.696 71.3686 11.016C71.7313 11.336 71.9126 11.7147 71.9126 12.152C71.9126 12.6213 71.7313 13.0107 71.3686 13.32C71.006 13.6293 70.5846 13.784 70.1046 13.784ZM79.5053 23.256C78.4386 23.256 77.4679 23.0053 76.5933 22.504C75.7293 21.992 75.0413 21.2987 74.5293 20.424C74.0279 19.5387 73.7773 18.5627 73.7773 17.496C73.7773 16.408 74.0226 15.4267 74.5133 14.552C75.0039 13.6773 75.6759 12.9947 76.5293 12.504C77.3826 12.0027 78.3426 11.752 79.4093 11.752C79.9853 11.752 80.5506 11.8213 81.1053 11.96C81.6599 12.0987 82.1346 12.296 82.5293 12.552L82.0972 15.032C81.3293 14.744 80.6359 14.6 80.0173 14.6C79.1639 14.6 78.5079 14.8507 78.0493 15.352C77.5906 15.8427 77.3613 16.552 77.3613 17.48C77.3613 18.3867 77.6013 19.096 78.0813 19.608C78.5719 20.1093 79.2493 20.36 80.1133 20.36C80.4439 20.36 80.7533 20.328 81.0413 20.264C81.3293 20.2 81.6813 20.0827 82.0972 19.912L82.5453 22.44C81.6173 22.984 80.6039 23.256 79.5053 23.256ZM87.8049 23.128C86.9089 23.128 86.1089 22.952 85.4049 22.6C84.7115 22.248 84.1675 21.7627 83.7729 21.144C83.3889 20.5147 83.1969 19.7947 83.1969 18.984C83.1969 18.1733 83.3942 17.4587 83.7889 16.84C84.1835 16.2107 84.7275 15.7253 85.4209 15.384C86.1249 15.0427 86.9249 14.872 87.8209 14.872C88.7275 14.872 89.5275 15.048 90.2209 15.4C90.9249 15.7413 91.4689 16.2213 91.8529 16.84C92.2369 17.4587 92.4289 18.1733 92.4289 18.984C92.4289 19.8053 92.2315 20.5307 91.8369 21.16C91.4529 21.7787 90.9089 22.264 90.2049 22.616C89.5115 22.9573 88.7115 23.128 87.8049 23.128ZM87.8369 20.728C88.2742 20.728 88.6315 20.568 88.9089 20.248C89.1969 19.9173 89.3409 19.496 89.3409 18.984C89.3409 18.472 89.1969 18.056 88.9089 17.736C88.6315 17.4053 88.2742 17.24 87.8369 17.24C87.3995 17.24 87.0369 17.4053 86.7489 17.736C86.4715 18.056 86.3329 18.472 86.3329 18.984C86.3329 19.496 86.4715 19.9173 86.7489 20.248C87.0369 20.568 87.3995 20.728 87.8369 20.728ZM93.6281 15.096H96.8441V16.728C97.4628 15.4907 98.4441 14.872 99.7881 14.872C100.812 14.872 101.612 15.24 102.188 15.976C102.775 16.7013 103.068 17.7093 103.068 19V23H99.7081V18.664C99.7081 18.2053 99.6068 17.8533 99.4041 17.608C99.2121 17.3627 98.9401 17.24 98.5881 17.24C98.3321 17.24 98.0815 17.3253 97.8361 17.496C97.5908 17.656 97.3881 17.8907 97.2281 18.2C97.0788 18.5093 97.0041 18.8613 97.0041 19.256V23H93.6281V15.096ZM108.757 23.128C107.871 23.128 107.082 22.952 106.389 22.6C105.706 22.2373 105.173 21.7467 104.789 21.128C104.405 20.4987 104.213 19.7893 104.213 19C104.213 18.1893 104.41 17.4693 104.805 16.84C105.199 16.2107 105.733 15.7253 106.405 15.384C107.077 15.0427 107.823 14.872 108.645 14.872C109.434 14.872 110.106 15.048 110.661 15.4C111.226 15.7413 111.647 16.2107 111.925 16.808C112.202 17.3947 112.341 18.056 112.341 18.792C112.341 18.984 112.33 19.1227 112.309 19.208L107.509 19.832C107.637 20.2053 107.845 20.4773 108.133 20.648C108.421 20.808 108.799 20.888 109.269 20.888C109.994 20.888 110.778 20.7013 111.621 20.328L112.021 22.472C111.029 22.9093 109.941 23.128 108.757 23.128ZM109.861 17.816C109.69 17.144 109.285 16.808 108.645 16.808C108.261 16.808 107.957 16.952 107.733 17.24C107.509 17.528 107.391 17.9013 107.381 18.36L109.861 17.816ZM117.455 23.128C116.602 23.128 115.844 22.9573 115.183 22.616C114.532 22.264 114.02 21.7733 113.647 21.144C113.284 20.5147 113.103 19.8 113.103 19C113.103 18.232 113.295 17.5333 113.679 16.904C114.063 16.2747 114.586 15.7787 115.247 15.416C115.908 15.0533 116.644 14.872 117.455 14.872C118.49 14.872 119.306 15.0853 119.903 15.512L119.599 17.64C118.991 17.4587 118.49 17.368 118.095 17.368C117.583 17.368 117.178 17.5173 116.879 17.816C116.58 18.104 116.431 18.4987 116.431 19C116.431 19.5013 116.58 19.9013 116.879 20.2C117.178 20.4987 117.572 20.648 118.063 20.648C118.49 20.648 118.991 20.5573 119.567 20.376L119.871 22.616C119.508 22.7973 119.14 22.9253 118.767 23C118.394 23.0853 117.956 23.128 117.455 23.128ZM124.554 23.128C123.615 23.128 122.885 22.8613 122.362 22.328C121.839 21.784 121.578 21.0373 121.578 20.088V16.968H120.554V14.984H121.818L123.306 11.96H124.922V14.984H126.778V16.968H124.922V19.688C124.922 19.9547 125.007 20.1627 125.178 20.312C125.349 20.4613 125.589 20.536 125.898 20.536C126.186 20.536 126.447 20.472 126.682 20.344L126.81 22.584C126.543 22.744 126.197 22.8773 125.77 22.984C125.354 23.08 124.949 23.128 124.554 23.128ZM131.383 23.128C130.69 23.128 130.039 22.9467 129.431 22.584C128.834 22.2107 128.354 21.7093 127.991 21.08C127.628 20.44 127.447 19.7307 127.447 18.952C127.447 18.184 127.628 17.4907 127.991 16.872C128.354 16.2427 128.839 15.752 129.447 15.4C130.055 15.048 130.7 14.872 131.383 14.872C131.938 14.872 132.45 15.0267 132.919 15.336C133.399 15.6453 133.762 16.1093 134.007 16.728V14.872H137.367V23H134.007V21.512C133.474 22.5893 132.599 23.128 131.383 23.128ZM132.423 20.6C132.85 20.6 133.212 20.4507 133.511 20.152C133.82 19.8427 133.986 19.48 134.007 19.064V18.936C133.986 18.5093 133.815 18.1467 133.495 17.848C133.186 17.5493 132.828 17.4 132.423 17.4C131.975 17.4 131.591 17.56 131.271 17.88C130.962 18.1893 130.807 18.5627 130.807 19C130.807 19.448 130.967 19.8267 131.287 20.136C131.607 20.4453 131.986 20.6 132.423 20.6Z" fill="black"/>
</g>
<defs>
<filter id="filter0_dd_1854_18" x="-2" y="2" width="40" height="36" filterUnits="userSpaceOnUse" color-interpolation-filters="sRGB">
<feFlood flood-opacity="0" result="BackgroundImageFix"/>
<feColorMatrix in="SourceAlpha" type="matrix" values="0 0 0 0 0 0 0 0 0 0 0 0 0 0 0 0 0 0 127 0" result="hardAlpha"/>
<feOffset dy="4"/>
<feGaussianBlur stdDeviation="2"/>
<feComposite in2="hardAlpha" operator="out"/>
<feColorMatrix type="matrix" values="0 0 0 0 0 0 0 0 0 0 0 0 0 0 0 0 0 0 0.25 0"/>
<feBlend mode="normal" in2="BackgroundImageFix" result="effect1_dropShadow_1854_18"/>
<feColorMatrix in="SourceAlpha" type="matrix" values="0 0 0 0 0 0 0 0 0 0 0 0 0 0 0 0 0 0 127 0" result="hardAlpha"/>
<feOffset dy="4"/>
<feGaussianBlur stdDeviation="2"/>
<feComposite in2="hardAlpha" operator="out"/>
<feColorMatrix type="matrix" values="0 0 0 0 0 0 0 0 0 0 0 0 0 0 0 0 0 0 0.25 0"/>
<feBlend mode="normal" in2="effect1_dropShadow_1854_18" result="effect2_dropShadow_1854_18"/>
<feBlend mode="normal" in="SourceGraphic" in2="effect2_dropShadow_1854_18" result="shape"/>
</filter>
<clipPath id="clip0_1854_18">
<rect width="138" height="34" fill="white"/>
</clipPath>
</defs>
</svg>
